<svg width="42" height="42" viewBox="0 0 42 42" fill="none" xmlns="http://www.w3.org/2000/svg">
  <circle cx="21" cy="21" r="21" fill="#F6F7FB" />
  <mask id="mask0_6179_907" style="mask-type:alpha" maskUnits="userSpaceOnUse" x="0" y="0" width="42" height="42">
    <circle cx="21" cy="21" r="21" fill="#C4C4C4" />
  </mask>
  <g mask="url(#mask0_6179_907)">
    <circle cx="21" cy="21" r="21" fill="#F0F3F9" />
    <path fill-rule="evenodd" clip-rule="evenodd"
      d="M21 20.4463C23.1406 20.4463 24.876 18.711 24.876 16.5703C24.876 14.4297 23.1406 12.6943 21 12.6943C18.8594 12.6943 17.124 14.4297 17.124 16.5703C17.124 18.711 18.8594 20.4463 21 20.4463Z"
      stroke="#5C5589" stroke-width="2" stroke-linecap="round" stroke-linejoin="round" />
    <path
      d="M13.8018 29.3057C13.8018 25.3302 17.0245 22.1074 21 22.1074C24.9755 22.1074 28.1982 25.3302 28.1982 29.3057"
      stroke="#5C5589" stroke-width="2" stroke-linecap="round" stroke-linejoin="round" />
    <rect width="42" height="42" fill="url(#pattern0)" />
  </g>
  <defs>
    <pattern id="pattern0" patternContentUnits="objectBoundingBox" width="1" height="1">
      <use xlink:href="#image0_6179_907" transform="scale(0.00195312)" />
    </pattern>
    <image id="image0_6179_907" width="512" height="512" xlink:href="https://avatars.githubusercontent.com/u/135246?v=4" />
  </defs>
</svg>
